<svg xmlns="http://www.w3.org/2000/svg" width="171.839" height="212.378" viewBox="0 0 171.839 212.378"><g transform="translate(-23.496)"><g transform="translate(23.496)"><path d="M194.335,1.5A4.623,4.623,0,0,0,191.051,0H27.78A4.5,4.5,0,0,0,24.5,1.5a5.005,5.005,0,0,0-.938,3.748L50.769,208.38a4.4,4.4,0,0,0,4.223,4H163.839a4.4,4.4,0,0,0,4.223-4L195.273,5.247A5.307,5.307,0,0,0,194.335,1.5ZM160.086,203.133H58.745L40.682,68.71c12.433-5.247,19.236-2.249,27.681,1.5,5.865,2.5,12.2,5.5,20.644,5.5,6.1,0,13.137-1.5,22.051-5.5,14.31-7,21.582-3.748,30.731.25,5.865,2.5,12.2,5.5,20.644,5.5a46.587,46.587,0,0,0,15.248-2.748Zm19-140.669c-16.421,7-24.866,3.248-33.78-.75-9.383-4.248-19.705-8.745-37.534,0-17.828,8.245-26.508,4.248-35.892,0-8.445-3.748-17.594-7.746-32.373-2.249l-6.8-50.221H186.125Z" transform="translate(-23.496)" fill="#fff"/></g></g></svg>